PathFileType	4	(X/Y/Z)	 s02c0401.trc
DataRate	CameraRate	NumFrames	NumMarkers	Units	OrigDataRate	OrigDataStartFrame	OrigNumFrames
200	200	5	50	mm	200	501	2000
Frame#	Time	racr			lacr			c7			jug			rlel			rdr			llel			ldr			s2			lic			ric			lasi			rasi			rpsi			lpsi			rgt			lgt			rth1			rth2			rth3			rth4			rlfc			rmfc			rsh1			rsh2			rsh3			rsh4			rlmal			rmmal			rtoe			rmt5			rmt1			lth1			lth2			lth4			lth3			llfc			lmfc			lsh1			lsh2			lsh3			lsh4			llmal			lmmal			lcal			ltoe			lmt5			SBIKE			LBIKE			RBIKE			
		X1	Y1	Z1	X2	Y2	Z2	X3	Y3	Z3	X4	Y4	Z4	X5	Y5	Z5	X6	Y6	Z6	X7	Y7	Z7	X8	Y8	Z8	X9	Y9	Z9	X10	Y10	Z10	X11	Y11	Z11	X12	Y12	Z12	X13	Y13	Z13	X14	Y14	Z14	X15	Y15	Z15	X16	Y16	Z16	X17	Y17	Z17	X18	Y18	Z18	X19	Y19	Z19	X20	Y20	Z20	X21	Y21	Z21	X22	Y22	Z22	X23	Y23	Z23	X24	Y24	Z24	X25	Y25	Z25	X26	Y26	Z26	X27	Y27	Z27	X28	Y28	Z28	X29	Y29	Z29	X30	Y30	Z30	X31	Y31	Z31	X32	Y32	Z32	X33	Y33	Z33	X34	Y34	Z34	X35	Y35	Z35	X36	Y36	Z36	X37	Y37	Z37	X38	Y38	Z38	X39	Y39	Z39	X40	Y40	Z40	X41	Y41	Z41	X42	Y42	Z42	X43	Y43	Z43	X44	Y44	Z44	X45	Y45	Z45	X46	Y46	Z46	X47	Y47	Z47	X48	Y48	Z48	X49	Y49	Z49	X50	Y50	Z50	
501	2.5050	488.167360	1318.093900	-119.221832	501.563831	1337.007147	-448.961469	497.968293	1347.960152	-290.858764	454.096138	1220.351647	-297.695685	567.243186	1058.123968	-56.838031	714.696317	893.776254	-121.807396	568.938400	1072.530047	-549.417900	708.480467	889.555963	-508.408427	0.758165	1103.118502	-315.352773	145.274153	1111.562549	-452.317326	131.453544	1113.571386	-173.972238	185.831092	1074.630015	-430.909242	185.573052	1087.526964	-197.097931	21.600416	1144.436985	-274.108131	22.942385	1151.465264	-353.735651	117.136141	1035.437989	-135.958071	85.313951	1011.761433	-491.426935	203.484581	1012.053716	-133.212401	290.119561	998.191416	-139.084222	358.620093	951.222792	-117.316400	302.179501	1022.564160	-165.590618	474.612624	856.762414	-151.508705	464.945465	839.337224	-263.271091	459.569739	744.746907	-135.719371	442.321910	659.301185	-154.466975	388.463173	590.989518	-147.629331	450.500933	657.508786	-193.489214	322.942100	491.508793	-151.018309	329.845202	507.424124	-233.104899	536.595296	450.835828	-184.786732	429.122171	426.753916	-125.748068	455.218337	443.520951	-234.696875	191.767688	913.616644	-510.130001	261.375985	861.161129	-510.500976	287.675220	881.126497	-493.625004	293.545445	777.795826	-509.419389	347.209799	693.899002	-482.432685	347.963439	665.641294	-378.866559	297.765045	602.818315	-501.478981	266.996935	523.625474	-484.446711	198.447210	465.373675	-486.767022	285.087501	515.433010	-448.382419	125.064007	387.531105	-471.653985	146.403297	372.228037	-396.007278	47.752062	379.998989	-428.927819	262.585859	190.448843	-440.304407	164.798841	238.811088	-498.713929	-162.333448	860.444461	-309.603851	37.345973	86.368254	-514.276086	34.072389	83.030410	-114.185072	
502	2.5100	488.507882	1317.487777	-118.373350	502.567448	1337.068150	-448.046296	498.635376	1347.442940	-289.917850	454.677142	1219.819392	-296.958001	566.278641	1057.311657	-55.724760	714.485455	893.762068	-121.605460	568.868712	1072.588992	-549.583198	708.743528	889.854838	-508.338046	0.843132	1103.544014	-315.303478	145.356269	1112.049065	-452.340512	131.746364	1113.535278	-173.901540	185.661511	1074.866845	-431.084127	185.879140	1087.676817	-197.302292	21.868311	1144.950490	-274.066978	23.927918	1151.790693	-353.798724	117.431439	1035.493340	-136.053552	85.131011	1012.207777	-491.546265	203.661969	1011.983077	-133.535463	290.259996	997.966880	-139.458915	358.684026	950.746272	-117.755933	302.409022	1022.167994	-166.051461	474.230867	855.840898	-152.342225	464.577541	838.635037	-263.841500	459.644433	744.022128	-136.176397	442.518764	658.443512	-154.863095	388.926116	590.221758	-147.847527	450.715708	656.741921	-193.812724	323.659941	490.409387	-151.005176	330.319769	506.369493	-233.139990	537.336072	449.661407	-184.841890	429.914528	425.739475	-125.736022	455.822407	442.351371	-234.701944	191.773010	914.162993	-510.160234	261.517072	861.864550	-510.420999	287.699585	881.817833	-493.432682	293.996949	778.673385	-509.514398	347.561858	694.724384	-482.221075	347.956149	666.338019	-378.592204	298.016900	603.688432	-501.346980	266.977524	524.503605	-484.257116	198.286557	466.480938	-486.780679	285.134651	516.332955	-448.243795	124.565474	388.702443	-471.825369	142.185160	375.587204	-394.401028	47.207146	381.104776	-428.973539	261.837632	191.276366	-440.167661	164.094577	239.775888	-498.681487	-162.307910	860.487346	-309.293841	37.354753	86.390707	-514.270585	34.058542	83.065351	-114.190396	
503	2.5150	488.845387	1316.903501	-117.559965	503.532206	1337.179433	-446.984126	499.249975	1346.958193	-288.997989	455.216740	1219.335220	-296.408843	565.836601	1056.641417	-54.573159	714.138319	893.728088	-121.740706	568.828179	1072.706734	-549.626419	708.869275	890.067313	-508.175607	0.910674	1103.994208	-315.213944	145.386122	1112.504221	-452.327301	132.006387	1113.497595	-173.872110	185.524425	1075.142582	-431.290454	186.182280	1087.820833	-197.534553	22.118655	1145.367907	-274.042141	23.348828	1152.530332	-353.585496	117.784542	1035.539891	-136.139260	84.996917	1012.667060	-491.712906	203.848455	1012.049437	-133.746369	290.390351	997.760005	-139.850273	358.703178	950.341996	-118.223384	302.579076	1021.900659	-166.399065	473.986064	855.146952	-152.939199	464.111980	837.871907	-264.349515	459.676957	743.351803	-136.537050	442.820221	657.713059	-155.050470	389.398825	589.199139	-147.994032	450.910333	655.920217	-194.076111	324.001305	489.658791	-150.565798	330.758518	505.075895	-233.037677	538.027733	448.513178	-184.921395	430.698143	424.638098	-125.699798	456.418752	441.286525	-234.745388	191.809240	914.773547	-510.168091	261.715337	862.568366	-510.311800	287.805290	882.602814	-493.272647	294.299292	779.353021	-509.100391	347.903477	695.509401	-482.006382	347.971288	667.233689	-378.368302	298.262405	604.501177	-501.218818	266.963924	525.424398	-484.118898	198.133425	467.592250	-486.768465	285.165748	517.083211	-448.330738	124.054258	389.911876	-471.972669	141.696294	376.916617	-394.468360	46.626573	382.388653	-429.095401	261.291942	192.454872	-440.179172	163.519678	240.919988	-498.685642	-162.332866	860.474131	-309.550458	37.362685	86.384090	-514.276737	34.054194	83.055701	-114.188656	
504	2.5200	489.213929	1316.267053	-116.785323	504.550540	1337.266142	-445.871509	499.897013	1346.456789	-288.007818	455.721140	1218.918306	-295.748819	565.449071	1055.988581	-53.530572	713.981687	893.779265	-121.564516	568.783250	1072.892140	-549.526343	709.019525	890.322441	-508.046291	0.977162	1104.445697	-315.183144	145.459016	1112.964140	-452.340430	132.170498	1113.381439	-173.974621	185.381489	1075.409311	-431.448652	186.459239	1087.990387	-197.788690	22.398311	1145.680951	-274.053373	24.283612	1152.867434	-353.617754	118.106341	1035.630430	-136.238930	84.825041	1013.161039	-491.864139	204.048542	1012.125766	-133.971806	290.550075	997.496406	-140.268569	358.733448	949.871424	-118.738837	302.778138	1021.601928	-166.828623	473.747237	854.379496	-153.512949	463.669533	837.015326	-264.805703	459.654402	742.605338	-136.949508	442.940275	656.835688	-155.413568	389.798326	588.318195	-148.129287	451.140474	655.131868	-194.385413	324.751799	488.290805	-150.748303	331.622792	503.920441	-233.186407	538.701435	447.383313	-185.021209	431.344537	423.609394	-125.621148	457.031118	440.080606	-234.661758	191.923563	915.304327	-510.128464	261.949621	863.282539	-510.147003	287.921304	883.469475	-493.100976	294.686872	780.175800	-508.966738	348.189167	696.357030	-481.737350	348.011532	668.082697	-378.097723	298.482939	605.331104	-501.060896	266.928271	526.354150	-484.013179	197.954320	468.678227	-486.818966	285.083049	517.985136	-448.163240	123.523092	391.115230	-472.118387	140.981676	378.180509	-394.466595	46.058086	383.541304	-429.123366	260.584631	193.547618	-440.140170	162.891098	242.085485	-498.724611	-162.311685	860.597626	-309.114498	37.368484	86.384896	-514.274858	34.065233	83.078095	-114.198027	
505	2.5250	489.535751	1315.668838	-116.024652	505.578790	1337.334621	-444.706995	500.470838	1345.990241	-287.139247	456.221434	1218.216722	-295.206133	565.020808	1055.344314	-52.387599	713.831960	893.845260	-121.464369	568.732009	1073.127376	-549.377199	709.203221	890.652259	-507.941911	1.032809	1104.899327	-315.077176	145.503435	1113.451651	-452.385653	132.434910	1113.381234	-173.980343	185.214561	1075.669149	-431.622397	186.731610	1088.137018	-197.994717	22.617602	1145.992611	-273.987718	23.781169	1153.524174	-353.463343	118.414602	1035.719285	-136.311662	84.646250	1013.663949	-492.046831	204.227834	1012.177781	-134.239207	290.694778	997.234734	-140.693943	358.748808	949.410878	-119.234744	302.957566	1021.473449	-167.294275	473.425193	853.688283	-154.142566	463.176158	836.197247	-265.367256	459.569435	741.859248	-137.387838	444.264405	655.627192	-155.693012	390.224192	587.296504	-148.261060	451.224426	654.216289	-194.634420	325.403997	487.180535	-150.659510	331.979289	502.646924	-232.956192	539.347625	446.173629	-185.133313	432.117372	422.453944	-125.636001	457.614453	438.998572	-234.715462	192.064900	915.926986	-509.986679	262.175406	864.107258	-509.993210	288.088690	884.209655	-492.871846	295.244757	781.192504	-509.101146	348.561064	697.162430	-481.629428	348.005189	668.873478	-377.745869	298.723452	606.199230	-500.932303	266.901108	527.322629	-483.783894	197.769945	469.739030	-486.624478	284.526174	519.150560	-447.665991	122.890685	392.407589	-472.196819	140.448342	379.479900	-394.501320	45.540307	384.767728	-429.228101	259.955253	194.567289	-440.251891	162.251874	243.082792	-498.685367	-162.364248	860.412637	-309.476191	37.380313	86.397496	-514.285103	34.057625	83.053156	-114.180373	
